<?xml version="1.0" encoding="utf-8"?>
<!-- Generator: Adobe Illustrator 24.0.1, SVG Export Plug-In . SVG Version: 6.00 Build 0)  -->
<svg version="1.2" baseProfile="tiny" id="图层_1"
	 xmlns="http://www.w3.org/2000/svg" xmlns:xlink="http://www.w3.org/1999/xlink" x="0px" y="0px" viewBox="0 0 45 45"
	 xml:space="preserve">
<path d="M22.5,17c-3.038,0-5.5,2.462-5.5,5.5c0,2.517,1.693,4.634,4,5.288v-3.299c-0.604-0.456-1-1.173-1-1.989
	c0-1.381,1.119-2.5,2.5-2.5s2.5,1.119,2.5,2.5c0,0.815-0.396,1.532-1,1.989v3.299c2.307-0.654,4-2.771,4-5.288
	C28,19.462,25.538,17,22.5,17z"/>
<path d="M24,30.86C23.512,30.947,23.013,31,22.5,31s-1.012-0.053-1.5-0.14v3.031C21.492,33.955,21.99,34,22.5,34
	s1.008-0.045,1.5-0.109V30.86z"/>
<path d="M22.5,5c-0.506,0-1.005,0.034-1.5,0.076v3.002C21.493,8.027,21.993,8,22.5,8c6.435,0,11.88,4.198,13.774,10h-3.201
	c-1.749-4.114-5.821-7-10.574-7c-0.51,0-1.008,0.045-1.5,0.109v3.031c0.488-0.087,0.987-0.14,1.5-0.14c4.182,0,7.65,3.022,8.36,7H32
	h1.891h3.031H38h1.924C39.162,12.039,31.659,5,22.5,5z"/>
<path d="M38,24h-1.078h-3.026H32h-1.149c-0.431,2.4-1.857,4.453-3.851,5.702v3.383c2.731-1.163,4.913-3.354,6.074-6.085h3.2
	C34.38,32.802,28.935,37,22.5,37c-0.507,0-1.007-0.027-1.5-0.078v3.002C21.495,39.966,21.994,40,22.5,40
	c9.159,0,16.662-7.039,17.424-16H38z"/>
<path d="M8,22.5c0-6.436,4.197-11.885,10-13.779V5.606C10.52,7.594,5,14.394,5,22.5s5.52,14.906,13,16.894V37v-0.721v-3.194V31
	v-1.298c-2.399-1.503-4-4.162-4-7.202c0-3.04,1.601-5.699,4-7.202v-3.383c-4.115,1.752-7,5.831-7,10.585c0,3.484,1.553,6.6,4,8.709
	v3.69C10.806,32.36,8,27.761,8,22.5z"/>
</svg>
