<?xml version="1.0" encoding="utf-8"?>
<!-- Generator: Adobe Illustrator 24.0.1, SVG Export Plug-In . SVG Version: 6.00 Build 0)  -->
<svg version="1.2" baseProfile="tiny" id="图层_1"
	 xmlns="http://www.w3.org/2000/svg" xmlns:xlink="http://www.w3.org/1999/xlink" x="0px" y="0px" viewBox="0 0 46 46"
	 xml:space="preserve">
<path d="M23,17c-3.314,0-6,2.686-6,6c0,2.611,1.671,4.827,4,5.651v-3.43c-0.61-0.549-1-1.336-1-2.221c0-1.657,1.343-3,3-3
	s3,1.343,3,3c0,1.304-0.837,2.403-2,2.816v3.094c2.837-0.477,5-2.938,5-5.91C29,19.686,26.314,17,23,17z"/>
<path d="M24,31.941C23.671,31.978,23.338,32,23,32c-0.688,0-1.356-0.084-2-0.231v3.051c0.652,0.11,1.317,0.18,2,0.18
	c0.338,0,0.669-0.023,1-0.05V31.941z"/>
<path d="M8,23c0-6.528,4.178-12.067,10-14.128V5.719C10.494,7.887,5,14.796,5,23c0,8.204,5.494,15.113,13,17.281V38v-0.872v-3.23V31
	v-0.518c-2.411-1.615-4-4.362-4-7.482c0-3.12,1.589-5.868,4-7.482v-3.416c-4.128,1.897-7,6.058-7,10.898c0,3.55,1.548,6.729,4,8.923
	v3.745C10.797,33.014,8,28.339,8,23z"/>
<path d="M23,5c-0.677,0-1.343,0.045-2,0.117v3.031C21.656,8.061,22.32,8,23,8c6.527,0,12.059,4.178,14.117,10h-3.221
	c-1.894-4.13-6.055-7-10.896-7c-0.683,0-1.348,0.07-2,0.18v3.051C21.644,14.084,22.312,14,23,14c4.282,0,7.859,2.993,8.769,7H33
	h1.82h3.031H39h1.883C39.887,12.001,32.264,5,23,5z"/>
<path d="M39,24h-1.05h-2.992H33h-1.072c-0.345,3.099-2.252,5.721-4.928,7.053v3.249c3.405-1.206,6.099-3.901,7.306-7.303h3.13
	C35.686,33.34,29.896,38,23,38c-0.68,0-1.344-0.061-2-0.149v3.031C21.657,40.955,22.323,41,23,41c9.604,0,17.428-7.527,17.949-17H39
	z"/>
</svg>
