<svg xmlns="http://www.w3.org/2000/svg" viewBox="0 0 36.92426 37"><title>avatar.centered</title><path d="M21.5,15A6.49695,6.49695,0,0,0,20,27.81909V24.65027a3.5,3.5,0,1,1,3,0v3.16882A6.49695,6.49695,0,0,0,21.5,15Z" transform="translate(-3 -3)"/><path d="M23,30.87024a8.73473,8.73473,0,0,1-3,0v3.03137a11.48328,11.48328,0,0,0,3,0Z" transform="translate(-3 -3)"/><path d="M6,21.5A15.5027,15.5027,0,0,1,17,6.66876V3.57428a18.47612,18.47612,0,0,0,0,35.85144V36.33124A15.5027,15.5027,0,0,1,6,21.5Z" transform="translate(-3 -3)"/><path d="M12,21.5a9.49686,9.49686,0,0,1,5-8.367V9.84851a12.48483,12.48483,0,0,0,0,23.303V29.867A9.49686,9.49686,0,0,1,12,21.5Z" transform="translate(-3 -3)"/><path d="M30.87024,20h3.03137A12.42167,12.42167,0,0,0,20,9.09839v3.03137A9.41851,9.41851,0,0,1,30.87024,20Z" transform="translate(-3 -3)"/><path d="M30.87183,23A9.5033,9.5033,0,0,1,26,29.867v3.28449A12.501,12.501,0,0,0,33.90125,23Z" transform="translate(-3 -3)"/><path d="M36.92426,20h3A18.49061,18.49061,0,0,0,21.5,3c-.50641,0-1.00391.03583-1.5.07574v3C20.494,6.02826,20.99359,6,21.5,6A15.49894,15.49894,0,0,1,36.92426,20Z" transform="translate(-3 -3)"/><path d="M36.92426,23A15.49894,15.49894,0,0,1,21.5,37c-.50641,0-1.006-.02826-1.5-.07574v3c.49609.03991.99359.07574,1.5.07574A18.49066,18.49066,0,0,0,39.92426,23Z" transform="translate(-3 -3)"/><rect x="29" y="14" width="6" height="3"/><rect x="29" y="20" width="6" height="3"/><rect x="11" y="28" width="3" height="6"/></svg>